<?xml version="1.0" encoding="UTF-8"?>
<svg width="24" height="24" version="1.1" viewBox="0 0 24 24" xmlns="http://www.w3.org/2000/svg">
 <path d="m12 1.5c-4.97 0-9 2.015-9 4.5v12c0 2.485 4.03 4.5 9 4.5s9-2.015 9-4.5v-12c0-2.485-4.03-4.5-9-4.5zm0 2c2.123 0 4.0857 0.41542 5.4707 1.1074 1.069 0.535 1.5293 1.0796 1.5293 1.3926s-0.4613 0.85758-1.5293 1.3926c-1.384 0.692-3.3477 1.1074-5.4707 1.1074-2.123 0-4.0867-0.41542-5.4707-1.1074-1.069-0.535-1.5293-1.0796-1.5293-1.3926s0.4603-0.85758 1.5293-1.3926c1.384-0.692 3.3477-1.1074 5.4707-1.1074zm-7 5.3281c1.65 1.019 4.173 1.6719 7 1.6719 2.827 0 5.35-0.65188 7-1.6719v3.1719c0 0.313-0.4603 0.85758-1.5293 1.3926-1.384 0.692-3.3477 1.1074-5.4707 1.1074-2.123 0-4.0867-0.41542-5.4707-1.1074-1.069-0.535-1.5293-1.0796-1.5293-1.3926zm0 6c1.65 1.019 4.173 1.6719 7 1.6719 2.827 0 5.35-0.65188 7-1.6719v3.1719c0 0.313-0.4603 0.85758-1.5293 1.3926-1.384 0.692-3.3477 1.1074-5.4707 1.1074-2.123 0-4.0867-0.41542-5.4707-1.1074-1.069-0.535-1.5293-1.0796-1.5293-1.3926z"/>
</svg>
