<?xml version="1.0" encoding="UTF-8"?>
<svg width="24" height="24" version="1.1" viewBox="0 0 24 24" xmlns="http://www.w3.org/2000/svg">
 <path d="m18.484 3.5156-1.4141 1.4141a10 10 0 0 1 2.9297 7.0703 10 10 0 0 1-2.9297 7.0703l1.4141 1.4141a12 12 0 0 0 3.5156-8.4844 12 12 0 0 0-3.5156-8.4844zm-2.8281 2.8281-1.4141 1.4141a6 6 0 0 1 1.7578 4.2422 6 6 0 0 1-1.7578 4.2422l1.4141 1.4141a8 8 0 0 0 2.3438-5.6562 8 8 0 0 0-2.3438-5.6562zm-3.3634-5.0507-5.707 5.707h-3.5859a1 1 0 0 0-1 1v8a1 1 0 0 0 1 1h3.5859l5.707 5.707a0.41421 0.41421 0 0 0 0.70711-0.29289v-20.828a0.41421 0.41421 0 0 0-0.70711-0.29289zm-1.2929 4.121v13.172l-3.5859-3.5859h-3.4141v-6h3.4141z"/>
</svg>
